<svg xmlns="http://www.w3.org/2000/svg" viewBox="0 0 568.41 417.72"><defs><style>.cls-1{fill:#fed766;}</style></defs><g id="Layer_2" data-name="Layer 2"><g id="Layer_1-2" data-name="Layer 1"><path class="cls-1" d="M139.48,417.39a4,4,0,0,1-5.6-3.7v-.05c0-24.49-.1-49,.1-73.48,0-4.06-1.11-5.81-5.14-6.8C53,314.6-.59,248,0,170.07.53,101.26,32.82,50.32,93.5,17.89,116.81,5.42,142.16.06,168.61.06c77,0,154-.16,231,.05C477.81.32,545,53.53,563.64,129.59c21,85.86-29.38,174.67-114,201A173.24,173.24,0,0,1,398,338.34c-24.71,0-52-.32-76.73-.17-3.09,0-3.52.95-6.35,2.18q-87.4,38.26-174.72,76.74ZM283.92,40.58c-37.67,0-75.33-.11-113,.09a146.3,146.3,0,0,0-23.36,1.95C74.31,54.86,26.77,126.69,43.9,199c13.69,57.76,65.55,98.56,125.71,98.65q114,.15,228,0a133.78,133.78,0,0,0,55.7-12.05c56.75-25.5,87.49-93.07,69.15-152.54-17.27-56-66.49-92.45-125-92.49Q340.67,40.55,283.92,40.58Z"/><path class="cls-1" d="M282.49,267.73c-37.82,0-75.64.35-113.45-.08-42.1-.49-72.9-19.86-91.16-57.84C48.89,149.53,92.36,75.54,159.1,71c2.32-.16,4.66-.3,7-.3,77.8,0,155.6-.37,233.39.14,45.42.3,83.33,31.33,94.1,75.34,15,61.39-31.53,121-95.14,121.51C359.79,268,321.14,267.73,282.49,267.73Zm-53-98.43c0-18.4-15-33.53-33.22-33.51a33.48,33.48,0,0,0-33.72,33.54c-.08,18,15.21,33.29,33.5,33.38C214.2,202.81,229.53,187.48,229.52,169.3Zm106.26-.4c-.26,18.19,14.89,33.7,33,33.81,18.35.11,33.68-14.79,33.93-33a33.52,33.52,0,0,0-33.35-33.93C351.19,135.5,336,150.41,335.78,168.9Z"/></g></g></svg>