<svg xmlns="http://www.w3.org/2000/svg" viewBox="0 0 325.32 324.98"><defs><style>.cls-1{fill:#fed766;}</style></defs><g id="Layer_2" data-name="Layer 2"><g id="Layer_1-2" data-name="Layer 1"><g id="Layer_2-2" data-name="Layer 2"><g id="Layer_1-2-2" data-name="Layer 1-2"><path d="M173.82,324.61a36.22,36.22,0,0,0-8.64.29c-4.55.37-9.05-.69-13.63-.46A3.7,3.7,0,0,0,149,325c-.2-.57-.72-.4-1.15-.43a159.07,159.07,0,0,1-27.22-4.75,155.7,155.7,0,0,1-34.33-13.71,161.63,161.63,0,0,1-73.87-81.48A158.54,158.54,0,0,1,.61,149.3a158.75,158.75,0,0,1,19-64A161.78,161.78,0,0,1,97.32,13.47,152.65,152.65,0,0,1,138.71,1.63,84.29,84.29,0,0,0,149.19.1c5.24,1,10.54-.48,15.79,0a73.36,73.36,0,0,0,11.29,0c.17.61.72.41,1.09.44A162.11,162.11,0,0,1,289.68,61.42a160.17,160.17,0,0,1,35.4,93.49A154.93,154.93,0,0,1,318.17,210a161.58,161.58,0,0,1-71.63,91.82,155.75,155.75,0,0,1-49.88,19.73A124.71,124.71,0,0,1,173.82,324.61Z"/><path class="cls-1" d="M177.78,88.81a12.86,12.86,0,0,1,9.77,4.87q22.89,22.57,45.7,45.28c4.12,4.09,8.38,8.09,12.39,12.29a19.55,19.55,0,0,1,6,9.57,12.23,12.23,0,0,1-4.18,11.52Q226.23,193.16,205,214c-6.62,6.51-13.45,12.79-19.9,19.47-4.29,4.41-13.94,3.77-18.38-2.88-3.83-5.76-1.38-12.79,2.65-16.85,10.37-10.42,20.94-20.62,31.42-30.9,6.14-6,12.25-12.1,18.47-18.06,1.7-1.64,1.55-2.88,0-4.41Q202,143.13,184.52,126c-5-5-10.19-9.85-15.06-15a13,13,0,0,1,3.74-21.23A20.5,20.5,0,0,1,177.78,88.81Z"/><path class="cls-1" d="M104.78,88.81a12.86,12.86,0,0,1,9.77,4.87q22.89,22.57,45.7,45.28c4.12,4.09,8.38,8.09,12.39,12.29a19.55,19.55,0,0,1,6,9.57,12.23,12.23,0,0,1-4.18,11.52Q153.23,193.16,132,214c-6.62,6.51-13.45,12.79-19.9,19.47-4.29,4.41-13.94,3.77-18.38-2.88-3.83-5.76-1.38-12.79,2.65-16.85,10.37-10.42,20.94-20.62,31.42-30.9,6.14-6,12.25-12.1,18.47-18.06,1.7-1.64,1.55-2.88,0-4.41Q129,143.13,111.52,126c-5-5-10.19-9.85-15.06-15a13,13,0,0,1,3.74-21.23A20.5,20.5,0,0,1,104.78,88.81Z"/></g></g></g></g></svg>