<?xml version="1.0" encoding="UTF-8"?>
<svg version="1.1" xmlns="http://www.w3.org/2000/svg" width="512" height="512">
<path d="M0 0 C5.3174032 3.13024491 8.5433049 7.2002272 10.5078125 13.09375 C10.60460772 15.61414076 10.64518735 18.106838 10.63911438 20.62727356 C10.64228795 21.7885808 10.64228795 21.7885808 10.64552563 22.9733488 C10.65153214 25.57575249 10.65052502 28.17810778 10.6496582 30.78051758 C10.65268927 32.6431232 10.65621057 34.50572807 10.66018677 36.36833191 C10.66808017 40.38381343 10.67322234 44.39928604 10.67647743 48.41477394 C10.68238282 54.76382294 10.69891863 61.11281575 10.71781921 67.46183777 C10.72415672 69.63461396 10.73048234 71.80739018 10.73679638 73.98016644 C10.73996219 75.06835371 10.743128 76.15654099 10.74638975 77.27770364 C10.78848387 92.06150926 10.82144565 106.84528883 10.83374023 121.62915039 C10.84211565 131.59782593 10.86458714 141.56636252 10.9030959 151.53496855 C10.92287405 156.81131519 10.93525528 162.08745402 10.93026161 167.3638401 C10.92562136 172.3272878 10.93938657 177.29034153 10.96727371 182.25370979 C10.97419596 184.07498125 10.97430096 185.89629336 10.96707344 187.71756363 C10.95819859 190.20527053 10.97385564 192.69167442 10.99555969 195.17927551 C10.98711716 195.89903228 10.97867462 196.61878905 10.96997625 197.36035663 C11.05091185 202.38154844 12.38502459 205.20985636 15.5078125 209.09375 C18.94847948 211.96097248 21.95577423 212.64136138 26.44921875 212.4375 C29.97836422 211.84819298 32.97588479 210.65131749 35.5078125 208.09375 C37.90720431 203.25759263 38.88240115 199.7447587 38.87962341 194.26954651 C38.88344798 193.61992524 38.88727254 192.97030396 38.891213 192.3009972 C38.90043169 190.14388085 38.88854939 187.98741766 38.87670898 185.83032227 C38.8791792 184.27578466 38.88301985 182.72124872 38.88812256 181.16671753 C38.89643967 177.82842509 38.89567079 174.49030336 38.88793755 171.15200996 C38.87632389 165.86899597 38.88854268 160.58620014 38.90455627 155.3032074 C38.94069753 142.18262027 38.94698146 129.06203865 38.94445801 115.94140625 C38.9427455 105.74019632 38.94990203 95.53916538 38.98443657 85.33800548 C39.00119984 80.09069396 38.99946267 74.84381963 38.98361385 69.59651005 C38.97780346 66.32705484 38.98858087 63.0578055 39.00386047 59.7883873 C39.00757618 58.27755137 39.00450913 56.76668042 38.99398994 55.25587654 C38.8893359 39.14612825 38.8893359 39.14612825 44.88428402 32.58796024 C49.72679835 28.16333949 54.91307943 26.58200864 61.42578125 26.78125 C66.68188483 27.57015861 70.92782401 30.10176917 74.3828125 34.09375 C77.98206118 39.17504225 78.75823597 42.03754848 78.76609802 48.3678894 C78.76977373 49.10211313 78.77344943 49.83633686 78.77723652 50.5928098 C78.78721952 53.05396854 78.78306515 55.51490148 78.77905273 57.97607422 C78.78343963 59.74030803 78.78874165 61.50453977 78.79489136 63.26876831 C78.80639553 67.06870668 78.81185108 70.86858926 78.81277275 74.66854477 C78.8147123 80.67744781 78.83275923 86.68623536 78.85353088 92.69509888 C78.90273594 107.62128532 78.93360575 122.54750318 78.95483398 137.47375488 C78.9713537 149.07121442 78.99416048 160.66857513 79.03785473 172.26596844 C79.05964087 178.23880069 79.06768801 184.21144524 79.06546199 190.18431449 C79.06712889 193.90160436 79.08117846 197.61877173 79.09867477 201.33601761 C79.10427354 203.05892801 79.10476019 204.78186382 79.09973717 206.504776 C79.09359442 208.85867849 79.10582933 211.21180804 79.12254333 213.56564331 C79.12455466 214.88229918 79.12656599 216.19895504 79.12863827 217.55550957 C79.63293972 222.26136672 80.97318958 225.70299798 84.5078125 228.90625 C88.51951949 231.28820102 91.92228159 231.40999351 96.5078125 231.09375 C99.27223219 229.68615659 99.27223219 229.68615659 101.5078125 228.09375 C102.1678125 228.09375 102.8278125 228.09375 103.5078125 228.09375 C105.90105586 222.23902664 105.90105586 222.23902664 106.63911438 216.02839661 C106.64312256 215.20283264 106.64713074 214.37726868 106.65126038 213.52668762 C106.65073166 212.6243187 106.65020294 211.72194977 106.6496582 210.79223633 C106.65313263 209.8390451 106.65660706 208.88585388 106.66018677 207.90377808 C106.66754371 205.83141985 106.67288942 203.75905374 106.67647743 201.68668556 C106.68364237 198.40350075 106.69931014 195.12046543 106.71781921 191.83732605 C106.77028122 182.50151645 106.81824809 173.16578776 106.83374023 163.82983398 C106.84383609 158.12037203 106.87320373 152.4112848 106.91506004 146.70197105 C106.92735402 144.52877325 106.93249424 142.35552247 106.93026161 140.18229103 C106.92790198 137.13520131 106.95012691 134.08918122 106.9777832 131.04223633 C106.97118179 130.14998856 106.96458038 129.25774078 106.95777893 128.3384552 C107.05356283 121.88766485 108.4071426 116.36563212 112.95496082 111.56669331 C118.16467787 107.0444306 122.12417062 105.61525676 128.91015625 105.78515625 C133.84958771 106.37194585 137.70459505 108.12007916 141.078125 111.8125 C144.09013683 115.8744131 145.63080694 119.23778729 145.63924026 124.36380863 C145.64308141 125.23998028 145.64692255 126.11615193 145.6508801 127.01887423 C145.65001362 127.98226747 145.64914713 128.94566071 145.64825439 129.93824768 C145.65271108 131.47275044 145.65271108 131.47275044 145.6572578 133.03825325 C145.66596346 136.48327401 145.66745468 139.9282601 145.66894531 143.37329102 C145.67357249 145.8371081 145.67859701 148.30092446 145.68399048 150.76473999 C145.69713377 157.47423597 145.70360115 164.18371834 145.70800114 170.893224 C145.71076543 175.08866264 145.71500342 179.28409897 145.71950531 183.47953606 C145.73170467 195.10930137 145.74199891 206.73906483 145.7453804 218.3688364 C145.74559997 219.11350857 145.74581953 219.85818073 145.74604575 220.62541872 C145.74626403 221.37183799 145.74648231 222.11825727 145.7467072 222.88729531 C145.74715066 224.39971705 145.74759722 225.9121388 145.74804688 227.42456055 C145.7482683 228.17476799 145.74848973 228.92497544 145.74871787 229.69791644 C145.75265526 241.82003038 145.77007377 253.9420838 145.7934064 266.06417442 C145.81720221 278.52839548 145.82958618 290.99258632 145.83074832 303.45683044 C145.83166109 310.44716586 145.83731126 317.43742268 145.85556793 324.42773628 C145.87271462 331.01623198 145.87416039 337.60460597 145.86542892 344.19312668 C145.86466314 346.59957084 145.86894005 349.00602325 145.87888718 351.41244698 C145.94385651 368.12296101 144.92013274 384.07793435 140.2578125 400.21875 C140.04946777 400.9511792 139.84112305 401.6836084 139.62646484 402.43823242 C137.29148771 410.30586931 134.09862115 417.72582641 130.5078125 425.09375 C129.96253906 426.21394531 129.41726563 427.33414062 128.85546875 428.48828125 C121.90806394 442.00711367 112.56217316 453.7708485 102.5078125 465.09375 C101.63769531 466.07408203 101.63769531 466.07408203 100.75 467.07421875 C76.15909776 493.08620328 37.61260304 510.1677922 2.02508545 511.38232422 C-1.91813819 511.48249061 -5.86032859 511.51587853 -9.8046875 511.53125 C-10.55578796 511.53751404 -11.30688843 511.54377808 -12.08074951 511.55023193 C-53.33082979 511.76781824 -91.69250064 494.0986498 -121.01220703 465.6171875 C-146.6331996 439.84978926 -164.64917479 401.81800188 -164.63935852 365.19346619 C-164.64303521 364.44019611 -164.6467119 363.68692604 -164.6505 362.9108296 C-164.66143489 360.40921454 -164.66536303 357.90764113 -164.66918945 355.40600586 C-164.67546141 353.60339733 -164.68210885 351.80079008 -164.68910217 349.9981842 C-164.71004337 344.10166305 -164.72048953 338.2051419 -164.73046875 332.30859375 C-164.73451887 330.27433318 -164.73863586 328.24007275 -164.74281883 326.20581245 C-164.76184207 316.65424727 -164.77608376 307.10268971 -164.7844308 297.55110925 C-164.79421785 286.53538035 -164.82058763 275.51985159 -164.86093169 264.50419325 C-164.89108133 255.97915061 -164.90589825 247.45416545 -164.90921181 238.92907053 C-164.91156191 233.84108577 -164.92051873 228.75331557 -164.94567299 223.66538811 C-164.96894107 218.88249478 -164.97319204 214.09995757 -164.96291161 209.31702232 C-164.96241597 207.56386887 -164.9687446 205.81069793 -164.98246765 204.05759811 C-165.00018136 201.66032285 -164.99308419 199.26432684 -164.97993469 196.86705017 C-164.99090394 196.17696253 -165.00187318 195.48687489 -165.01317483 194.77587551 C-164.92503045 188.09949441 -162.35082352 183.95238602 -157.6796875 179.28125 C-152.20420504 175.52356596 -147.24865492 174.53359613 -140.765625 175.49609375 C-135.22367433 176.95299831 -130.97671284 179.75761345 -128.0546875 184.71875 C-125.75605152 189.68380372 -125.34189249 193.57736629 -125.33447266 198.95825195 C-125.32939194 199.75859863 -125.32431122 200.55894531 -125.31907654 201.38354492 C-125.3083761 203.12195555 -125.29975464 204.86037993 -125.29295731 206.5988102 C-125.28116371 209.35217598 -125.26170925 212.10538524 -125.23983765 214.85868835 C-125.17823983 222.68723327 -125.12419645 230.5157623 -125.09082031 238.34448242 C-125.06985482 243.13320293 -125.03453577 247.9216382 -124.99006271 252.71019554 C-124.97591674 254.53336412 -124.96718344 256.35658316 -124.96400833 258.17980385 C-124.95909001 260.73386016 -124.93590847 263.28716192 -124.90869141 265.84106445 C-124.91169754 266.59089096 -124.91470367 267.34071747 -124.9178009 268.11326599 C-124.84318449 272.83716602 -124.02250136 276.09723817 -121.4921875 280.09375 C-117.53982664 283.17659147 -114.95619465 284.44444771 -109.9296875 284.15625 C-105.15719234 283.34997522 -102.77532041 281.61711215 -99.4921875 278.09375 C-96.97193266 273.48186757 -97.2105592 268.95418853 -97.23390198 263.83912659 C-97.23022627 262.90395437 -97.22655057 261.96878215 -97.22276348 261.00527138 C-97.21277928 257.87007668 -97.21693514 254.7350592 -97.22094727 251.59985352 C-97.2165605 249.35272025 -97.21125852 247.10558861 -97.20510864 244.85845947 C-97.1936043 240.01850451 -97.18814891 235.17859336 -97.18722725 230.33862495 C-97.18528816 222.68721144 -97.16724417 215.03588868 -97.14646912 207.38450623 C-97.11869636 196.65860424 -97.09571318 185.93271109 -97.07885742 175.20678711 C-97.07778474 174.5263377 -97.07671206 173.84588828 -97.07560688 173.14481919 C-97.06378674 165.55321295 -97.053581 157.96160589 -97.04516602 150.36999512 C-97.04209205 147.61702472 -97.03900327 144.86405434 -97.03588867 142.11108398 C-97.03512333 141.43176803 -97.03435799 140.75245208 -97.03356946 140.0525508 C-97.02048493 128.72282389 -96.99568584 117.39316371 -96.96214527 106.06347603 C-96.94034152 98.4557091 -96.93231362 90.84808965 -96.93453801 83.24029362 C-96.93287298 78.50910528 -96.91883499 73.77801347 -96.90132523 69.04685974 C-96.89571911 66.85146727 -96.89524653 64.65605483 -96.90026283 62.46066093 C-96.90638983 59.46533814 -96.89419818 56.47062662 -96.87745667 53.47535706 C-96.88366848 52.60521754 -96.8898803 51.73507803 -96.89628035 50.83857065 C-96.83700344 45.0244427 -95.85341097 40.76942212 -91.87890625 36.265625 C-87.16359778 32.31994159 -83.38949287 30.42174683 -77.1796875 29.71875 C-71.13064662 30.3339067 -65.67796114 32.34679135 -61.5546875 36.96875 C-58.14795301 42.13046893 -57.24242904 46.60187384 -57.2406311 52.73522949 C-57.23766096 53.37724037 -57.23469083 54.01925124 -57.23163068 54.68071699 C-57.22403221 56.81783619 -57.23046737 58.95467717 -57.23681641 61.09179688 C-57.2340646 62.62972702 -57.23038355 64.16765575 -57.22584534 65.70558167 C-57.21774926 69.01057355 -57.21556084 72.31549784 -57.21779251 75.62049866 C-57.22063038 80.84825142 -57.20625663 86.07586956 -57.18881226 91.30358887 C-57.14182843 106.16672762 -57.11784063 121.02985667 -57.11132812 135.89306641 C-57.10757715 144.10713943 -57.0895474 152.32105959 -57.05623376 160.53506708 C-57.03602503 165.73022528 -57.03364647 170.92498912 -57.04451394 176.12017059 C-57.04712238 179.3534892 -57.03311114 182.58657845 -57.01443291 185.81983757 C-57.00911411 187.3169922 -57.01060244 188.81418915 -57.01946831 190.31132698 C-57.03061405 192.35885532 -57.01713316 194.4048362 -56.99771118 196.45227051 C-56.99662165 197.59671883 -56.99553211 198.74116714 -56.99440956 199.92029572 C-56.37410355 203.83990205 -54.9426006 206.00574877 -52.4921875 209.09375 C-48.10845296 212.0162397 -44.71441151 212.653274 -39.4921875 212.09375 C-36.31194637 211.09602729 -34.27122795 210.23641253 -32.35982847 207.43285519 C-29.85767024 202.59374646 -28.91899536 198.47437216 -29.00012207 193.00364685 C-28.99310359 191.8431151 -28.99310359 191.8431151 -28.98594332 190.65913826 C-28.97508257 188.08808505 -28.99244523 185.51802714 -29.00976562 182.94702148 C-29.00757797 181.09515088 -29.00357849 179.24328167 -28.99790955 177.39141846 C-28.98936378 173.41413006 -28.99310105 169.43711191 -29.0063324 165.45983696 C-29.02670679 159.16885964 -29.01667583 152.87815344 -29.0020752 146.58717346 C-28.97534553 133.23517454 -28.98204705 119.88326419 -28.9921875 106.53125 C-29.00313628 92.11219048 -29.00836799 77.69327093 -28.97489309 63.27423531 C-28.96152448 57.02226445 -28.96747202 50.77070133 -28.98825836 44.51875484 C-28.99724699 40.62878963 -28.98976811 36.73898148 -28.97784615 32.84902954 C-28.9757164 31.04750601 -28.98043042 29.24595919 -28.9925518 27.44447517 C-29.00818796 24.98151795 -28.99917797 22.51980417 -28.98425293 20.05686951 C-28.99474183 19.34732713 -29.00523072 18.63778475 -29.01603746 17.90674108 C-28.9353342 11.90965701 -26.93772642 7.76052349 -22.89453125 3.3515625 C-16.3548686 -1.70577661 -7.91416204 -2.87787711 0 0 Z M-112.90234375 334.71484375 C-117.26355173 339.89137456 -121.14871045 345.36214409 -124.9296875 350.96875 C-125.35523926 351.59942383 -125.78079102 352.23009766 -126.21923828 352.87988281 C-129.82813199 358.35675509 -132.29851917 362.6557461 -131.34765625 369.37890625 C-123.62614054 393.88325976 -95.85787888 416.16835733 -74.0546875 427.90625 C-42.30037659 444.32048764 -3.40580951 448.72508359 30.98486328 438.34619141 C65.66355034 427.29325045 94.93199412 403.39825586 111.77319336 370.9934082 C113.25759825 367.15487231 112.80661073 363.92549864 111.5078125 360.09375 C107.23431794 351.69448662 101.62970497 344.23012751 95.5078125 337.09375 C94.47720703 335.87945312 94.47720703 335.87945312 93.42578125 334.640625 C74.04680089 312.43336102 49.38825653 297.47370938 20.5078125 291.09375 C19.45980469 290.86171875 18.41179687 290.6296875 17.33203125 290.390625 C-31.29657652 280.76119772 -79.6761766 298.58071383 -112.90234375 334.71484375 Z " fill="#000000" transform="translate(265.4921875,0.90625)"/>
<path d="M0 0 C2.30430135 2.897221 3.97584247 5.81704075 5.625 9.125 C13.66738477 23.98162212 27.84993002 34.33543675 43.91015625 39.26171875 C63.97092333 44.83611825 84.41423831 42.8762133 102.78125 32.9765625 C116.20014446 24.73631906 124.54978618 14.21978957 131 0 C140.79086955 4.13960755 151.07682699 15.73753433 156 25 C155.77563176 34.21312082 144.53648682 43.01590948 138.19140625 49.11328125 C117.93912836 67.86722492 90.79474581 76.57072597 63.53125 75.97631836 C32.62346079 74.73917209 6.14781047 62.14708678 -15.20703125 39.97265625 C-24.05452454 30.23848607 -24.05452454 30.23848607 -23.890625 26.515625 C-20.46977887 16.85323504 -8.49930047 5.66620031 0 0 Z " fill="#000000" transform="translate(190,340)"/>
<path d="M0 0 C1.49599321 5.25467616 0.09080427 7.85821079 -2.421875 12.50390625 C-8.0661906 21.43142524 -16.99258643 26.76721279 -27.078125 29.4921875 C-38.7967556 31.5288479 -51.25313947 30.71345129 -61.59375 24.421875 C-68.6361736 19.21048154 -74.16050346 13.3607398 -77 5 C-77 3.68 -77 2.36 -77 1 C-53.4460473 -9.42725547 -24.00476565 -8.5042009 0 0 Z " fill="#000000" transform="translate(294,324)"/>
</svg>
