<svg xmlns="http://www.w3.org/2000/svg" viewBox="0 0 339.12 338.77"><defs><style>.cls-1{fill:#b5b5e2;}.cls-2{fill:#fed766;}</style></defs><g id="Layer_2" data-name="Layer 2"><g id="Layer_1-2" data-name="Layer 1"><path d="M157.93.39a37.66,37.66,0,0,0,9-.3c4.75-.39,9.43.72,14.2.48A3.86,3.86,0,0,0,183.84,0c.21.6.75.42,1.2.45a165.5,165.5,0,0,1,28.37,5A162.57,162.57,0,0,1,249.2,19.7a168.49,168.49,0,0,1,77,84.93,165.51,165.51,0,0,1,12.28,78.51,165.72,165.72,0,0,1-19.76,66.71,168.67,168.67,0,0,1-81.06,74.88,159,159,0,0,1-43.15,12.34,91.2,91.2,0,0,0-10.92,1.59c-5.47-1-11,.51-16.46,0a77.08,77.08,0,0,0-11.77,0c-.18-.63-.75-.42-1.14-.45A169,169,0,0,1,37.14,274.74,167.05,167.05,0,0,1,.24,177.29a162,162,0,0,1,7.21-57.41A168.45,168.45,0,0,1,82.12,24.17a161.92,161.92,0,0,1,52-20.57A130,130,0,0,1,157.93.39Z"/><path class="cls-1" d="M213.93,124.4c-.52,7.16-3.24,13.52-6.62,19.58-11.46,20.5-27.3,37.14-45.88,51.28-8.45,6.43-17.4,12.1-27.71,15.12a27.07,27.07,0,0,1-8.52,1.13c-7.42-.27-11.63-5-11.48-12.48.14-7.13,2.79-13.56,6.25-19.56a165.13,165.13,0,0,1,61.62-61.62c6-3.46,12.43-6.1,19.56-6.24,5.69-.1,9.93,2.41,11.66,7.18A36.89,36.89,0,0,1,213.93,124.4Zm-85.29,81.13a101.33,101.33,0,0,0,11.46-4.1c11.82-5.57,22-13.58,31.44-22.5,12.74-12,24.31-25,31.93-40.91a48.08,48.08,0,0,0,4-13.43c.76-4.94-1.81-7.35-6.74-6.83a36.39,36.39,0,0,0-9.85,2.45c-13.15,5.36-24.14,14-34.45,23.54-12.19,11.3-23.09,23.65-31.07,38.35-2.84,5.24-5.34,10.66-5.6,16.76C119.58,203.55,121.74,205.61,128.64,205.53Z"/><path class="cls-1" d="M233.46,109.64c-.17,11.35-3,19.51-6.8,27.36-12.17,25.21-30.37,45.59-51.38,63.67a166.88,166.88,0,0,1-28.76,20.14c-2.59,1.42-4.31,1.36-5.31-.29s-.39-3.39,2.13-4.82c22.87-12.93,41.86-30.36,58.29-50.67,9.9-12.23,18.44-25.32,23.46-40.4,1.7-5.09,3-10.32,2.14-15.71a23.23,23.23,0,0,0-2.81-6.92c-1-1.82-1.94-3.44-.11-5.15,1.45-1.33,3.31-.77,5.09,1.46A18.43,18.43,0,0,1,233.46,109.64Z"/><path class="cls-1" d="M93.94,213.42c.15-11.16,3-19.33,6.78-27.16C113.26,160.32,132,139.33,154,121.17c7.39-6.1,15.59-11.22,23.42-16.78,1.81-1.29,3.67-1.58,5,.55s-.18,3.59-1.93,4.65c-21.3,12.86-39.27,29.49-54.82,48.77-9.82,12.18-18.42,25.16-23.24,40.21A66.82,66.82,0,0,0,100,211.65a13.35,13.35,0,0,0,3,9.79c1.59,2.05,1.49,4-.12,5-2,1.34-3.47.15-4.71-1.35A18.3,18.3,0,0,1,93.94,213.42Z"/><path class="cls-1" d="M105.51,248.61c-7.57,0-14.52-1.58-20.28-6.72-1.89-1.68-2.32-3.68-1-5,1.68-1.64,3.31-1,4.88.34,6.85,5.79,14.9,5.94,23.13,4.69,14.1-2.14,26.76-8.1,38.69-15.55,8.07-5,15.64-10.89,23.43-16.37.36-.25.7-.52,1.05-.79,1.62-1.25,3.22-1.43,4.59.31s.5,3.31-1,4.51c-2.3,1.89-4.62,3.75-7,5.52-12.29,9.07-25.15,17.17-39.4,22.85C123.89,245.9,114.93,248.47,105.51,248.61Z"/><path class="cls-1" d="M220,74.64c8.68,0,15,1.31,20.54,5.35A15.05,15.05,0,0,1,243,82c1.23,1.33,1.51,3.12.11,4.18-.91.68-3.16.91-3.91.28-9.65-8-20.48-6.58-31.22-3.7-20.6,5.52-38,17-54.53,30.06-3.1,2.44-4.63,2.67-6,.81s-.74-3.12,2.24-5.51c12.49-10,25.73-18.77,40.35-25.33C200.15,78.26,210.68,74.86,220,74.64Z"/><path class="cls-1" d="M65.72,198.1c.55-1.53.86-2.52,1.25-3.49C76.44,171,90.59,150.4,107.3,131.44c3.81-4.33,7.87-8.45,11.78-12.71,1.48-1.61,3.1-2.4,5-.89,1.48,1.18,1.23,3.12-.63,5a278.3,278.3,0,0,0-29.66,35.36C85.59,170,78.35,182.38,73,195.8a9.24,9.24,0,0,1-1.56,3.28,4.41,4.41,0,0,1-3.26,1.33C67.24,200.23,66.49,198.87,65.72,198.1Z"/><path class="cls-1" d="M205.36,206.63c-1-.82-2.42-1.38-2.55-2.15a5.06,5.06,0,0,1,.83-3.74c3.56-4.09,7.42-7.91,11-12a230.67,230.67,0,0,0,34.79-50.39c1.44-2.9,2.72-5.87,4.07-8.81.87-1.87,1.92-3.51,4.36-2.48,1.93.82,2.22,2.54,1.07,5.18a203.72,203.72,0,0,1-17.69,32.14,274.23,274.23,0,0,1-33,40A25.35,25.35,0,0,1,205.36,206.63Z"/><path class="cls-2" d="M267.06,85.66c-.65.63-1.49,2.09-2.5,2.22s-2.47-.82-3.29-1.7-.8-2.09-1.08-3.18A26.49,26.49,0,0,0,254,71.9c-1.41-1.57-1.82-3.27,0-4.76s3.23-.56,4.54.86C263.07,72.82,265.66,78.54,267.06,85.66Z"/><path class="cls-1" d="M60.31,237.51c.7-.64,1.62-2.15,2.57-2.17a4.35,4.35,0,0,1,3.32,2c1.28,2.54,1.79,5.48,3.08,8A56,56,0,0,0,73.9,252c1,1.45,1,3-.47,3.87-1,.55-3,.72-3.67.1C64.54,251.22,61.84,245.05,60.31,237.51Z"/><path class="cls-1" d="M267.69,101.44c-.81,4.19-1.39,7.62-2.16,11a2.73,2.73,0,0,1-3.48,2.32,3,3,0,0,1-2.34-3.79c.54-3.16,1.12-6.33,1.73-9.48.35-1.78,1.57-3,3.3-2.52C266,99.33,266.87,100.72,267.69,101.44Z"/><path class="cls-2" d="M128.09,129c-.08-2.13,7-9,9.14-8.86a2.79,2.79,0,0,1,2.11,4.58,50.65,50.65,0,0,1-6.72,6.54A2.8,2.8,0,0,1,128.09,129Z"/><path class="cls-2" d="M199.31,194.21c.07,2.13-7,9-9.15,8.86s-3.68-2.67-2.24-4.37a48.68,48.68,0,0,1,7.11-6.88C196.81,190.43,199.24,192,199.31,194.21Z"/><path class="cls-2" d="M60,220.72c.42-2.5.75-5,1.26-7.46.37-1.86,1.58-3,3.56-2.61s2.7,1.79,2.43,3.67c-.34,2.41-.77,4.8-1.22,7.19-.35,1.87-1.44,3.06-3.42,2.8S59.92,222.59,60,220.72Z"/><path class="cls-1" d="M191.26,140.86a22.23,22.23,0,0,1-1.54,4.93,103.61,103.61,0,0,1-40.88,41.38,18.39,18.39,0,0,1-5.18,1.79c-4.83,1-8.26-2.45-7.35-7.32.95-5.06,3.69-9.26,6.64-13.26,9-12.14,19.45-22.71,32.38-30.62a31.33,31.33,0,0,1,8.67-3.51C188,133.24,191.24,136.07,191.26,140.86Zm-6.39-.82a16.56,16.56,0,0,0-3.41,1.31c-5.52,3.83-11.32,7.35-16.38,11.72-8.71,7.51-16.47,16-21.7,26.4a26.83,26.83,0,0,0-1.14,3.45C154.76,180.9,184.08,150.89,184.87,140Z"/></g></g></svg>