<svg xmlns="http://www.w3.org/2000/svg" viewBox="0 0 391.75 394.03"><defs><style>.cls-1{fill:#fed766;}</style></defs><g id="Layer_2" data-name="Layer 2"><g id="Layer_1-2" data-name="Layer 1"><path class="cls-1" d="M163.33,152.62c-6.16,1.54-10.74,2.64-15.3,3.83q-30.3,7.88-60.57,15.77c-11.2,2.91-14.45,1.13-18.19-9.94Q65.34,150.69,61.61,139c-3.57-11.16-2-14.44,8.93-18.62Q162.43,85.21,254.32,50c8.47-3.24,16.84-6.75,25.38-9.78s12.51-1,15.31,7.41q8.6,25.8,16.74,51.76c3.05,9.72,1.07,13.18-8.83,15.83q-54.33,14.5-108.69,28.86c-3.17.85-6.32,1.81-10.6,3,1.5,3.61,2.54,6.64,4,9.48q47.1,92.57,94.27,185.11c2.93,5.76,8.41,12.81,0,17.33-8.58,4.62-11.15-4-14.1-9.71-11.48-22.31-23-44.59-34.16-67.09-4.43-9-10.91-13.24-20.88-12.65-5.12.3-10.28,0-15.42.06-11.9.12-14.45,2.58-14.47,14.35q-.08,46.74,0,93.47c0,2.42.8,5.36-.27,7.15-2.08,3.48-5.24,6.31-7.94,9.41-2.64-3.17-7.31-6.18-7.55-9.52-.92-12.63-.42-25.38-.43-38.08,0-21.18.07-42.36,0-63.53-.06-10.13-3-13.16-12.89-13.21-35.32-.18-30-2.35-45,26.37-9.22,17.69-18.1,35.57-27.17,53.35-1.23,2.41-2.06,5.69-4.08,6.91-2.94,1.78-7.8,3.79-10,2.51s-3-6.39-3.29-9.9c-.16-2.09,1.81-4.38,2.91-6.53Q113,252.3,159,162.19C160.3,159.6,161.4,156.89,163.33,152.62Zm2.91,36.79-2.71-.57c-7.41,14.44-15.08,28.76-22.1,43.38-2.86,6-4.32,12.6-6.42,18.94,7.34.73,14.67,1.49,22,2.17a3.78,3.78,0,0,0,2.62-.52c2.3-2.17,6.25-4.49,6.31-6.84C166.47,227.12,166.24,208.26,166.24,189.41Zm19.61-.55-3,.88V231c0,22.43.94,23.33,23.44,22.5.3,0,.6,0,.9,0,8.16-.49,9.76-2.92,6.4-10.19-2.4-5.19-5.09-10.25-7.69-15.34Q195.9,208.38,185.85,188.86Z"/><path class="cls-1" d="M295.72,23c2.24-2,4.85-6.12,8.46-7.42,15-5.41,30.37-10,45.62-14.85,6.63-2.1,11.38.21,13.54,6.79q14,42.57,27.72,85.23c2,6.22-.44,10.83-6.54,12.9-15.43,5.22-30.95,10.21-46.45,15.21-6.13,2-11.11.19-13.16-6-9.55-28.94-18.82-58-28.18-87C296.46,27,296.36,26.13,295.72,23Z"/><path class="cls-1" d="M33.42,171.8c-2.1-1.88-7.3-4.38-8.2-8s1.41-9.27,4.21-12.25c3.11-3.3,8.31-4.71,12.7-6.73,10.33-4.76,13.66-3.16,17.12,8,3.41,11,1.69,13.8-9.84,16.07C45,169.78,40.5,170.53,33.42,171.8Z"/><path class="cls-1" d="M20.76,175.6c-1.86,1.51-4.79,5.6-8.5,6.5C6.09,183.6-.68,174.36.05,164.36c.26-3.46,4.56-8.42,8-9.46C14,153.09,20.26,162.61,20.76,175.6Z"/></g></g></svg>