<svg xmlns="http://www.w3.org/2000/svg" viewBox="0 0 544.9 544.86"><defs><style>.cls-1{fill:#fed766;}</style></defs><g id="Layer_2" data-name="Layer 2"><g id="Layer_1-2" data-name="Layer 1"><path class="cls-1" d="M116.4,544.86c-34.45-.54-65.68-1.07-95.5-1.61-12-.22-19-7-19.28-18.71C.79,486.32.27,455.16,0,426.46c0-5.79,3.22-11.17,6-14,22.2-22.42,44.89-45.07,66.83-67l16.56-16.54c2.83-2.82,7.33-6.57,13.75-6.57a17.15,17.15,0,0,1,4.86.73c6.46,1.92,11.27,6.58,12.86,12.45s-.13,12.18-4.78,17.15c-5.42,5.79-11.09,11.42-16.58,16.85q-3.06,3-6.11,6.08L82.36,386.71c-14.78,14.81-30.07,30.13-45.22,45.1a3.62,3.62,0,0,0-1.32,3.36c.09,3.67.12,7.37.12,11,66-66.12,133-133.13,197.83-198l16.77-16.77c.69-.7,1.39-1.4,2.1-2.07,4.24-4,9.08-6.13,14-6.13a17.25,17.25,0,0,1,12.19,5.16c7.68,7.48,7.4,18.21-.69,26.69-2.57,2.69-5.22,5.32-7.77,7.85l-2.94,2.92-37.21,37.22c-62.43,62.44-127,127-190.56,190.4-2.92,2.91-3,4.31-2.81,6.12a60.59,60.59,0,0,1,.31,8c21.13.35,45.19.77,69,1.35,1.15-3.46,2.35-6.92,3.51-10.28,2.11-6.09,4.29-12.39,6.19-18.59,2.6-8.45,8-13.88,16.65-16.6,5.86-1.86,11.81-4,17.57-6,4.57-1.61,9.29-3.27,14-4.83,1.46-.48,1.48-.52,1.79-1.57,2.12-7.05,4.44-14.11,6.69-20.93,1.76-5.32,3.57-10.83,5.25-16.24a20.45,20.45,0,0,1,14.54-14.22c5.21-1.53,10.51-3.14,15.63-4.7,6.64-2,13.5-4.11,20.31-6.05a2.86,2.86,0,0,0,.57-.22,8.66,8.66,0,0,0,.42-1c2.11-6,4.32-12,6.45-17.88,3.08-8.43,6.27-17.16,9.19-25.76,3.14-9.23,9.62-14.64,19.27-16.07,10.46-1.55,21.79-3.5,34.61-6a5.07,5.07,0,0,0,2.11-1.3c7.53-7.57,14.27-14.44,20.64-21.74,5.1-5.84,11-8.68,17.91-8.68a30.36,30.36,0,0,1,7.29.95,146.24,146.24,0,0,0,34.5,4.33c27.83,0,53.65-9.11,76.75-27.09,37.39-29.11,54.26-68.06,50.13-115.76-4.86-56.09-47.5-103.2-103.71-114.56a128.85,128.85,0,0,0-25.56-2.57c-61.57,0-115,43.94-127.09,104.48a127.77,127.77,0,0,0,1.92,59.17c2.32,8.45.39,15.8-5.74,21.84-7.23,7.13-14.54,14.46-21.61,21.54q-7.94,8-15.88,15.86c-4.27,4.24-9.46,6.58-14.63,6.58A16.17,16.17,0,0,1,184,260.08c-7.62-8-7.13-18.61,1.24-27,10.69-10.77,21.19-21.32,32-31.95A165.57,165.57,0,0,1,309.94,15.18,166.6,166.6,0,0,1,379.35,0c66.93,0,127,40.31,153.13,102.68,32.09,76.7,0,168-73.05,207.9a164.75,164.75,0,0,1-79.73,20.69A182.44,182.44,0,0,1,344,327.63c-2.26,2.45-4.59,4.84-6.84,7.15-3.71,3.8-7.21,7.4-10.43,11.23-5.45,6.5-12.53,10.31-21.65,11.64-4.78.7-9.67,1.52-14.4,2.32-4.46.75-9.08,1.53-13.67,2.21l-.45.09c-.06.12-.13.29-.22.53-2.87,8.22-5.91,16.5-8.85,24.52-2.42,6.59-4.92,13.4-7.31,20.11a21,21,0,0,1-14.67,13.78c-5.13,1.47-10.34,3.05-15.39,4.58-6.25,1.89-12.7,3.84-19.13,5.64-1.45.41-1.46.46-1.82,1.65-2,6.78-4.25,13.58-6.38,20.17-1.71,5.26-3.47,10.7-5.13,16.05a20.94,20.94,0,0,1-14,14.46c-13.61,4.55-24.57,8.44-34.5,12.24a3.65,3.65,0,0,0-.94.91c-3.1,8.27-6,16.85-8.78,25.15q-1.42,4.25-2.87,8.48c-3.47,10.17-9.11,14.32-19.46,14.32h-.72Z"/><path class="cls-1" d="M412.91,185.53c-30.32-.21-54-24.29-53.85-54.82a53.52,53.52,0,0,1,16-38.19,54.54,54.54,0,0,1,38.52-15.67h.31A54.13,54.13,0,0,1,468,131.44c-.12,30.33-24.16,54.09-54.72,54.09Zm.7-72.79a18.61,18.61,0,0,0-13.31,5.38,18.63,18.63,0,0,0,26.45,26.24A18.57,18.57,0,0,0,432.08,131a18.27,18.27,0,0,0-18.44-18.27l0-8Z"/><path class="cls-1" d="M139,322.57a8,8,0,0,1-5.2-1.91c-.52-.45-1.25-1-2-1.51-2.56-1.81-6.07-4.28-7.69-8.47-2-5.21-1.72-13.41,2.29-18.12A260.74,260.74,0,0,1,148,270.63a16.93,16.93,0,0,1,11.56-4.53,18.9,18.9,0,0,1,13.63,6c6.18,6.53,5.92,17.37-.59,24.17-6.75,7.06-13.61,13.89-20.39,20.3a21.17,21.17,0,0,1-6.91,4c-.89.37-1.82.75-2.76,1.2A7.94,7.94,0,0,1,139,322.57Z"/></g></g></svg>