<svg xmlns="http://www.w3.org/2000/svg" viewBox="0 0 1373.62 566.55"><g id="Layer_2" data-name="Layer 2"><g id="Layer_1-2" data-name="Layer 1"><path d="M1071.91,566.55c-77.77-.3-153.57-22.29-238.56-69.21C766,460.14,706,411.58,648.05,364.61,637.36,356,626.32,347,615.41,338.28c-21.85-17.48-44.65-34.7-66.69-51.35-16.91-12.78-34.39-26-51.42-39.28-3-2.37-4.24-2.5-4.25-2.5s-1.66.18-6.71,4.15c-11.5,9-23.17,18.3-34.45,27.26-42.62,33.85-86.69,68.85-132.6,99.93C268.81,410.68,216,428,162.31,428l-3.64,0C99.52,427.14,49.72,401.46,22,357.54s-29.35-99.73-4.68-153.38C32.6,171,55.24,144.33,84.64,124.9c26-17.18,58.12-29.18,95.47-35.67a367.72,367.72,0,0,1,62.73-5.43c70.78,0,142.25,20.32,218.48,62.11,9.92,5.43,17,7.85,22.88,7.85,4.56,0,11.36-1.26,23.49-11.13,40.1-32.62,84.46-58.84,135.62-80.17,45-18.75,94.11-33.22,150.24-44.24C856,6,912.24,0,965.53,0a640.9,640.9,0,0,1,116.79,10.44c98.57,18.32,172.41,58.59,225.74,123.1,53,64.12,75,139.57,61.86,212.45s-60,136-132.12,177.66c-50.55,29.21-103.24,42.84-165.82,42.9Zm-523.74-368c24.27,18.63,48.63,37.41,72.3,55.67,67.95,52.42,138.21,106.61,208.14,158.38,39.76,29.44,88.18,52.61,143.92,68.89,36.76,10.74,70.16,16,102.11,16,51.12,0,96.69-13.48,139.32-41.19,48.45-31.5,78.68-73.92,87.42-122.67s-4.89-99.22-39.46-145.7C1217.8,128.56,1154.58,93,1068.64,79.18A699.54,699.54,0,0,0,957.81,70.3c-89.5,0-181.8,17.56-274.34,52.2C632.62,141.53,588.19,166.48,548.17,198.54ZM238.52,153.6c-6.75,0-13.59.22-20.34.65C168.48,157.44,130.81,172.72,103,201c-29.31,29.78-38.88,64.5-28.46,103.21,8,29.77,29.61,46.9,66,52.37a148,148,0,0,0,22,1.67h0a116.79,116.79,0,0,0,24.39-2.42c90-19.3,156.71-76.11,227.33-136.25,4.84-4.12,9.77-8.32,14.74-12.53C359.14,170.63,298.23,153.6,238.52,153.6Z"/></g></g></svg>