<svg xmlns="http://www.w3.org/2000/svg" viewBox="0 0 385.18 385.24"><defs><style>.cls-1{fill:#fed766;}</style></defs><g id="Layer_2" data-name="Layer 2"><g id="Layer_1-2" data-name="Layer 1"><path class="cls-1" d="M192.14,0c10.78-.2,19.82,3.53,26.47,10.9a191,191,0,0,1,20.44,27c9.65,15.55,18.47,31.64,27.19,47.74,3.95,7.3,9.32,11.15,17.54,13,21.26,4.7,42.4,10.07,63.42,15.75a74.37,74.37,0,0,1,18.62,8.27C383,133,389.24,151.15,382.54,170.13c-5.1,14.44-14.84,25.94-24.36,37.51-10.27,12.49-20.64,24.89-31.28,37.05-4.68,5.35-5.87,11-5.28,17.93,2.11,25.06,4.28,50.13,5.27,75.25.33,8.2-1.81,16.94-4.68,24.75-5.84,15.86-22.85,24.62-39.52,22.21-17.6-2.53-33.35-10.13-49.33-17.17q-17.58-7.74-35-15.9a12.8,12.8,0,0,0-11.46,0c-19.43,8.74-38.75,17.73-58.44,25.81a121.43,121.43,0,0,1-26.89,7.23c-20.88,3.29-39.88-11.75-42-34.54-1.47-15.64-.45-31.58.32-47.34.73-15,2.53-29.88,4-44.8.54-5.55-2.26-9.52-5.54-13.41C47.58,232,36.64,219.39,26.17,206.43A244.54,244.54,0,0,1,8.29,181.79c-16.48-26.65-7.91-53.45,21.43-64.3,16.46-6.09,33.86-9.68,50.89-14.19,8.35-2.22,16.8-4.13,25.27-5.89a14.79,14.79,0,0,0,10.46-7.66c9.28-16.37,18.21-32.95,28.12-48.92a225.73,225.73,0,0,1,21.88-29.62A32.74,32.74,0,0,1,192.14,0ZM88.6,329.9c.57,6.27.74,11.79,1.66,17.18,1,6.17,3.72,7.82,9.83,6.64,3.91-.75,8-1.4,11.58-2.94,18.35-7.86,36.85-15.44,54.77-24.19,16.71-8.17,32.82-9.65,49.76-1.15,12,6,24.29,11.73,36.75,16.84,10.73,4.4,21.84,7.88,32.85,11.55,4.79,1.59,7.89-.8,8.87-5.42.89-4.21,1.8-8.6,1.51-12.83-1.56-23.27-3.17-46.54-5.39-69.75-1.47-15.24,1.68-28.67,11.76-40.44,12.25-14.29,24.53-28.59,36.24-43.32,5.55-7,10.07-14.81,14.54-22.56,2.48-4.28.7-8.26-3.58-10.52s-8.6-4.61-13.2-5.8c-19-4.91-38-9.93-57.21-13.87-17.92-3.67-31.43-12-40.22-28.68C229.25,82,218.26,63.86,207.44,45.69c-2.7-4.51-6.45-8.45-10-12.37-3-3.3-6.67-3.2-9.6,0-3.69,4-7.5,8.15-10.27,12.82q-17,28.55-33.28,57.49c-7,12.28-16.79,20.45-30.69,23.55-11.53,2.57-23.11,5-34.51,8-13.47,3.6-27,7.29-40.07,12-8.83,3.17-10.18,7.89-5.57,16.1A128.89,128.89,0,0,0,45.87,181.4C57.77,196,70,210.29,82.16,224.69c8.1,9.61,13.26,20.36,12.68,33.25-.24,5.32-.7,10.64-1.18,15.95C92,292.8,90.24,311.71,88.6,329.9Z"/><path class="cls-1" d="M229.46,135.57c3.87.06,6.47,2.27,7.76,6.5,1.66,5.48,3.33,11,5.05,16.4,3.73,11.89,12.25,18.67,23.8,22.14,4.61,1.39,9.27,2.6,13.9,3.89,4.12,1.16,6.41,3.89,6.48,7.75s-2.33,6.59-6.59,8c-8.11,2.75-16.21,5.53-24.12,8.78a18.84,18.84,0,0,0-10.23,10.85c-2.92,7.49-5.34,15.17-7.85,22.81-1.36,4.15-4.54,6.78-8.53,6.69-3.55-.08-6.35-2.68-7.42-6.89-.1-.37-.08-.79-.21-1.15-2.55-7.09-4.88-14.26-7.73-21.22a21.27,21.27,0,0,0-11.87-11.89c-7-2.8-14.13-5.24-21.34-7.34-5-1.47-7.89-3.88-8-8.14s2.75-6.73,7.82-8.3c7.31-2.26,14.5-4.92,21.62-7.74a19,19,0,0,0,11-10.63c3.13-7.82,5.8-15.82,8.46-23.82C222.8,138.2,225.71,135.51,229.46,135.57Zm-23.22,57c11.29,4.88,18.53,12.25,23.37,23.08a43.66,43.66,0,0,1,23.24-23.32c-11.45-4.69-18.31-12.38-23.45-23C224.55,180.29,217.21,187.57,206.24,192.59Z"/></g></g></svg>