<svg xmlns="http://www.w3.org/2000/svg" viewBox="0 0 418.42 578.5"><g id="Layer_2" data-name="Layer 2"><g id="Layer_1-2" data-name="Layer 1"><path d="M347.36,578.5c-89.59-.13-179.63-.4-266.72-.65-6.87,0-15.93-.12-25-.71C22,574.94.25,552.29.19,519.43-.13,351.45,0,201.81.44,61.94c.06-19,6-34.76,17.15-45.54C28.53,5.83,44.32.22,63.26.18,117.66.06,174.32,0,231.65,0c39.78,0,81,0,122.6.09,20.5,0,36.52,5.82,47.62,17.23s16.54,27.46,16.54,48.11q0,78.46,0,156.92v79.14h-.06q0,25.9,0,51.82c0,50.81.05,103.35-.05,155-.1,49.18-21.23,70.16-70.67,70.16Zm2.34-532c-89.86.1-185,.46-282.89,1.05-11.78.07-16,1.84-17.42,3.31s-3.24,5.8-3.3,17.82c-.26,57.45-.26,115.89-.26,172.4v7c0,93.46,0,177.8.21,263.53,0,11.33,1.89,15.31,3,16.67,1.73,2.12,6.74,2.59,10.64,2.61,80.62.4,147.51.58,210.5.58h.09c28.06,0,55.63,0,82-.11,11.26,0,15.18-1.75,16.48-3.18s3.15-6.11,3.15-18.81q.06-77.94,0-155.88V278.09h.43q0-25,0-50c0-52,.05-105.66-.08-158.48,0-10.31-1.31-16.83-3.8-19.38s-8.68-3.74-18.61-3.74Z"/><path d="M210.54,353.33c-74.1-.66-72.56-113.79.7-114.83C283.32,237.75,282.85,355.75,210.54,353.33Zm.43-68.89c-15.55,1-14.4,22.51.5,22.85C226.58,306.92,222,284.48,211,284.44Z"/><path d="M170.14,242.34c-22.66-2.75-37.49-34.23-54-50.25-6-7.82-3.1-15.53-2.13-22.23,1.43-17.44-1.87-15.34,15.57-11.74,18.11-2.53,51.7,40.95,60.79,56l3.74,6.92C188.05,229.3,183.53,242.86,170.14,242.34Z"/><path d="M118.47,421c-1.6-8.05-6.24-16.81.39-25.66,14.29-13.25,28.33-45.44,53.44-49.21,51.5,8.2-4.38,56.37-19.82,74.54-6.89,9.57-21.53,11.36-31.37,16.42Z"/><path d="M295.83,438.51c-26.47,3.35-42.43-36.45-57.48-50.94-8-13.93,2.77-30.52,2.62-44.91,9,6.69,24.06,13.77,31.76,21.41,13.21,20.06,40.42,36.63,37,61.21C309.89,442.3,313.09,439.63,295.83,438.51Z"/><path d="M231.71,234.48c-2.12-8-7.21-17.1-.66-26.24,16.15-15.82,36.2-60.56,62.19-44,24,24.1-19.73,52.73-31.38,73.58-7.43,7.73-18.31,6.51-27.29,10.18Z"/><path d="M285.4,285.63c-20.49-3.24-22.66,7.1-20.9-14.09-5.83-23.1,24.73-37.6,39.06-49.16,8.32-5.88,18.33,0,26.19,3.51l14.41,5.21c-5.84,8.5-9.32,21.21-17.42,27.93C313.66,267.88,302.29,283.9,285.4,285.63Z"/><path d="M101,370.13c-38.39-19.79,7.32-56.34,32.53-62,13.49-1.49,29,17.66,15.73,35.36-12.9,11.77-26.8,21.84-40.19,32.76Z"/><path d="M309.14,372.8c-16.95-3.18-28.65-19.26-41.76-30.22-11.1-13.74,4.45-29.06,6.28-42.85l62.2,43.74-4.51,24C323.92,368.47,316.92,372.44,309.14,372.8Z"/><path d="M134.29,286.4c-17.9-2.41-28.84-16.78-43.87-29.5-9.47-10.5-2-21.27-2.54-32.22l21.42-7.45C127.49,232.86,186.06,274.17,134.29,286.4Z"/></g></g></svg>